<svg width="120" height="25" viewBox="0 0 120 25" fill="none" xmlns="http://www.w3.org/2000/svg">
<path d="M17.421 5.47608C16.6206 5.04964 15.4201 4.40997 13.8194 3.55707C13.0704 3.15798 11.8448 3.15798 11.0958 3.55707C9.40009 4.4594 8.13301 5.13395 7.29456 5.58074L12.2991 11.1606L17.421 5.47608Z" fill="#6296FF"/>
<path d="M2.76645 0.525371C2.22341 -0.0849972 1.24189 -0.176923 0.574606 0.32006C0.226483 0.578884 0.0367818 0.947118 0.00781974 1.32648C0.00646818 1.33849 0.0038616 5.57512 0 14.0364V16.9921C0 18.1452 0.893189 19.5602 1.98506 20.1369L10.3293 24.5438C10.8726 24.8309 11.5886 24.9737 12.3051 24.9748C13.0404 24.9737 13.7564 24.8309 14.3 24.5438C17.339 22.9388 19.6182 21.7351 21.1377 20.9326L2.76645 0.525371Z" fill="#0054FF"/>
<path d="M24.0547 0.318808C23.3874 -0.176362 22.4059 -0.0845072 21.8628 0.523368L12.2944 11.1626L21.1033 20.9522L22.6439 20.063C23.7355 19.4884 24.6287 18.0784 24.629 16.9297L24.6293 13.9848V1.37381C24.5925 0.943576 24.4028 0.576686 24.0547 0.318808Z" fill="#3175FF"/>
<path fill-rule="evenodd" clip-rule="evenodd" d="M42.0489 10.0045C41.8534 9.83969 41.6909 9.71973 41.5613 9.64458C41.2292 9.45194 40.8898 9.35562 40.5433 9.35562C40.0667 9.35562 39.6408 9.44453 39.2653 9.62235C38.8899 9.80017 38.5686 10.0373 38.3014 10.3336C38.0343 10.63 37.8321 10.9708 37.6949 11.3561C37.5577 11.7414 37.4891 12.1415 37.4891 12.5564C37.4891 12.9713 37.5577 13.3714 37.6949 13.7567C37.8321 14.142 38.0343 14.4828 38.3014 14.7792C38.5686 15.0755 38.8899 15.3126 39.2653 15.4904C39.6408 15.6683 40.0667 15.7572 40.5433 15.7572C40.9476 15.7572 41.323 15.672 41.6696 15.5015C41.791 15.4418 41.9304 15.345 42.0877 15.2109C42.3669 14.973 42.7782 15.0002 43.0255 15.273L43.7867 16.1127C44.0446 16.3971 44.0293 16.8426 43.7527 17.1076C43.7303 17.129 43.7066 17.1489 43.6817 17.167C43.5744 17.2452 43.4777 17.3087 43.3916 17.3575C43.0523 17.5502 42.7093 17.7058 42.3628 17.8243C42.0162 17.9429 41.6841 18.0281 41.3664 18.0799C41.0487 18.1318 40.7743 18.1577 40.5433 18.1577C39.7635 18.1577 39.027 18.0244 38.3339 17.7576C37.6408 17.4909 37.0415 17.113 36.5361 16.624C36.0307 16.135 35.63 15.546 35.3339 14.8569C35.0379 14.1679 34.8899 13.401 34.8899 12.5564C34.8899 11.7117 35.0379 10.9449 35.3339 10.2558C35.63 9.56678 36.0307 8.97775 36.5361 8.48874C37.0415 7.99973 37.6408 7.62187 38.3339 7.35513C39.027 7.0884 39.7635 6.95504 40.5433 6.95504C41.2075 6.95504 41.8754 7.0847 42.5469 7.34402C42.864 7.46649 43.2517 7.70855 43.7102 8.07022C44.0101 8.30689 44.0667 8.74877 43.8365 9.05718C43.8182 9.08172 43.7983 9.10499 43.777 9.12684L42.9667 9.95836C42.7177 10.2139 42.3209 10.2338 42.0489 10.0045ZM44.9879 12.5564C44.9879 11.7117 45.1359 10.9449 45.4319 10.2558C45.7279 9.56678 46.1286 8.97775 46.6341 8.48874C47.1395 7.99973 47.7387 7.62187 48.4319 7.35513C49.125 7.0884 49.8615 6.95504 50.6412 6.95504C51.421 6.95504 52.1575 7.0884 52.8506 7.35513C53.5437 7.62187 54.143 7.99973 54.6484 8.48874C55.1538 8.97775 55.5546 9.56678 55.8506 10.2558C56.1466 10.9449 56.2946 11.7117 56.2946 12.5564C56.2946 13.401 56.1466 14.1679 55.8506 14.8569C55.5546 15.546 55.1538 16.135 54.6484 16.624C54.143 17.113 53.5437 17.4909 52.8506 17.7576C52.1575 18.0244 51.421 18.1577 50.6412 18.1577C49.8615 18.1577 49.125 18.0244 48.4319 17.7576C47.7387 17.4909 47.1395 17.113 46.6341 16.624C46.1286 16.135 45.7279 15.546 45.4319 14.8569C45.1359 14.1679 44.9879 13.401 44.9879 12.5564ZM47.5871 12.5564C47.5871 12.9713 47.6557 13.3714 47.7929 13.7567C47.9301 14.142 48.1322 14.4828 48.3994 14.7792C48.6665 15.0755 48.9878 15.3126 49.3633 15.4904C49.7387 15.6683 50.1647 15.7572 50.6412 15.7572C51.1178 15.7572 51.5438 15.6683 51.9192 15.4904C52.2947 15.3126 52.6159 15.0755 52.8831 14.7792C53.1502 14.4828 53.3524 14.142 53.4896 13.7567C53.6268 13.3714 53.6954 12.9713 53.6954 12.5564C53.6954 12.1415 53.6268 11.7414 53.4896 11.3561C53.3524 10.9708 53.1502 10.63 52.8831 10.3336C52.6159 10.0373 52.2947 9.80017 51.9192 9.62235C51.5438 9.44453 51.1178 9.35562 50.6412 9.35562C50.1647 9.35562 49.7387 9.44453 49.3633 9.62235C48.9878 9.80017 48.6665 10.0373 48.3994 10.3336C48.1322 10.63 47.9301 10.9708 47.7929 11.3561C47.6557 11.7414 47.5871 12.1415 47.5871 12.5564ZM59.0629 7.22177H60.1628C60.541 7.22177 60.8475 7.53692 60.8475 7.92568V8.93329H60.8908C61.1363 8.39983 61.5118 7.93676 62.0172 7.54407C62.5226 7.15138 63.2085 6.95504 64.0749 6.95504C64.7681 6.95504 65.3565 7.07358 65.8402 7.31068C66.324 7.54777 66.7175 7.85896 67.0207 8.24424C67.324 8.62952 67.5406 9.07406 67.6706 9.57789C67.8005 10.0817 67.8655 10.6078 67.8655 11.1561V17.1871C67.8655 17.5759 67.559 17.891 67.1808 17.891H65.9509C65.5728 17.891 65.2662 17.5759 65.2662 17.1871V12.4897C65.2662 12.1933 65.2518 11.8636 65.2229 11.5006C65.194 11.1375 65.1182 10.7967 64.9955 10.4781C64.8727 10.1595 64.6814 9.89278 64.4215 9.67792C64.1616 9.46305 63.8078 9.35562 63.3601 9.35562C62.9269 9.35562 62.5623 9.42971 62.2663 9.57789C61.9702 9.72608 61.7248 9.92612 61.5298 10.178C61.3349 10.43 61.1941 10.7189 61.1074 11.0449C61.0208 11.3709 60.9775 11.7117 60.9775 12.0674V17.1871C60.9775 17.5759 60.6709 17.891 60.2928 17.891H59.0629C58.6848 17.891 58.3782 17.5759 58.3782 17.1871V7.92568C58.3782 7.53692 58.6848 7.22177 59.0629 7.22177ZM69.256 8.78507V7.92568C69.256 7.53692 69.5625 7.22177 69.9406 7.22177H71.4003V4.83604C71.4003 4.44728 71.7069 4.13213 72.085 4.13213H73.3149C73.6931 4.13213 73.9996 4.44728 73.9996 4.83604V7.22177H76.1741C76.5522 7.22177 76.8588 7.53692 76.8588 7.92568V8.78507C76.8588 9.17383 76.5522 9.48898 76.1741 9.48898H73.9996V14.1568C73.9996 14.6902 74.0971 15.1126 74.292 15.4237C74.487 15.7349 74.8732 15.8905 75.4509 15.8905C75.6819 15.8905 75.9346 15.8646 76.209 15.8127C76.5079 15.7562 76.7947 15.9595 76.8497 16.2668C76.8557 16.3006 76.8588 16.3348 76.8588 16.3691V17.2907C76.8588 17.6062 76.6545 17.8832 76.359 17.9684C76.1679 18.0236 75.9988 18.0607 75.8516 18.0799C75.4545 18.1318 75.1043 18.1577 74.801 18.1577C74.1079 18.1577 73.5411 18.0799 73.1007 17.9244C72.6603 17.7688 72.3137 17.5317 72.061 17.2131C71.8083 16.8945 71.635 16.4981 71.5411 16.0239C71.4473 15.5497 71.4003 15.0014 71.4003 14.3791V9.48898H69.9406C69.5625 9.48898 69.256 9.17383 69.256 8.78507ZM79.2372 7.22177H80.4671C80.8452 7.22177 81.1517 7.53692 81.1517 7.92568V8.91107H81.1951C81.4839 8.28869 81.8954 7.8071 82.4297 7.46627C82.964 7.12545 83.5777 6.95504 84.2709 6.95504C84.4297 6.95504 84.5849 6.96985 84.7366 6.99949C85.0067 7.0523 85.2022 7.29512 85.2023 7.57786V8.99103C85.2022 9.30123 84.9576 9.55269 84.6559 9.55269C84.6249 9.55269 84.5939 9.54997 84.5633 9.54455C84.3539 9.50751 84.1481 9.48898 83.9459 9.48898C83.3395 9.48898 82.8521 9.60382 82.4839 9.83351C82.1156 10.0632 81.834 10.3262 81.6391 10.6226C81.4442 10.919 81.3142 11.2153 81.2492 11.5117C81.1842 11.8081 81.1517 12.0303 81.1517 12.1785V17.1871C81.1517 17.5759 80.8452 17.891 80.4671 17.891H79.2372C78.859 17.891 78.5525 17.5759 78.5525 17.1871V7.92568C78.5525 7.53692 78.859 7.22177 79.2372 7.22177ZM85.7263 12.5564C85.7263 11.7117 85.8743 10.9449 86.1703 10.2558C86.4664 9.56678 86.8671 8.97775 87.3725 8.48874C87.8779 7.99973 88.4772 7.62187 89.1703 7.35513C89.8634 7.0884 90.5999 6.95504 91.3797 6.95504C92.1595 6.95504 92.8959 7.0884 93.589 7.35513C94.2822 7.62187 94.8814 7.99973 95.3869 8.48874C95.8923 8.97775 96.293 9.56678 96.589 10.2558C96.885 10.9449 97.0331 11.7117 97.0331 12.5564C97.0331 13.401 96.885 14.1679 96.589 14.8569C96.293 15.546 95.8923 16.135 95.3869 16.624C94.8814 17.113 94.2822 17.4909 93.589 17.7576C92.8959 18.0244 92.1595 18.1577 91.3797 18.1577C90.5999 18.1577 89.8634 18.0244 89.1703 17.7576C88.4772 17.4909 87.8779 17.113 87.3725 16.624C86.8671 16.135 86.4664 15.546 86.1703 14.8569C85.8743 14.1679 85.7263 13.401 85.7263 12.5564ZM88.3256 12.5564C88.3256 12.9713 88.3941 13.3714 88.5313 13.7567C88.6685 14.142 88.8707 14.4828 89.1378 14.7792C89.405 15.0755 89.7263 15.3126 90.1017 15.4904C90.4772 15.6683 90.9031 15.7572 91.3797 15.7572C91.8562 15.7572 92.2822 15.6683 92.6576 15.4904C93.0331 15.3126 93.3544 15.0755 93.6215 14.7792C93.8887 14.4828 94.0908 14.142 94.228 13.7567C94.3652 13.3714 94.4338 12.9713 94.4338 12.5564C94.4338 12.1415 94.3652 11.7414 94.228 11.3561C94.0908 10.9708 93.8887 10.63 93.6215 10.3336C93.3544 10.0373 93.0331 9.80017 92.6576 9.62235C92.2822 9.44453 91.8562 9.35562 91.3797 9.35562C90.9031 9.35562 90.4772 9.44453 90.1017 9.62235C89.7263 9.80017 89.405 10.0373 89.1378 10.3336C88.8707 10.63 88.6685 10.9708 88.5313 11.3561C88.3941 11.7414 88.3256 12.1415 88.3256 12.5564ZM99.8447 1.08695H101.075C101.453 1.08695 101.759 1.4021 101.759 1.79086V17.1871C101.759 17.5759 101.453 17.891 101.075 17.891H99.8447C99.4665 17.891 99.16 17.5759 99.16 17.1871V1.79086C99.16 1.4021 99.4665 1.08695 99.8447 1.08695ZM105.156 1.08695H106.386C106.764 1.08695 107.07 1.4021 107.07 1.79086V17.1871C107.07 17.5759 106.764 17.891 106.386 17.891H105.156C104.778 17.891 104.471 17.5759 104.471 17.1871V1.79086C104.471 1.4021 104.778 1.08695 105.156 1.08695ZM112.132 14.4786C112.308 14.8875 112.499 15.1803 112.706 15.3571C113.226 15.8016 113.854 16.0239 114.591 16.0239C115.24 16.0239 115.786 15.8868 116.226 15.6127C116.431 15.4852 116.681 15.279 116.976 14.9941C117.219 14.7594 117.591 14.7388 117.857 14.9452L118.605 15.5251C118.906 15.7592 118.966 16.2006 118.739 16.511C118.713 16.5462 118.684 16.5789 118.652 16.6085C118.07 17.151 117.59 17.5044 117.212 17.6687C116.461 17.9947 115.674 18.1577 114.851 18.1577C114.071 18.1577 113.334 18.0244 112.641 17.7576C111.948 17.4909 111.349 17.113 110.843 16.624C110.338 16.135 109.937 15.546 109.641 14.8569C109.345 14.1679 109.197 13.401 109.197 12.5564C109.197 11.7117 109.345 10.9449 109.641 10.2558C109.937 9.56678 110.338 8.97775 110.843 8.48874C111.349 7.99973 111.948 7.62187 112.641 7.35513C113.334 7.0884 114.071 6.95504 114.851 6.95504C115.573 6.95504 116.233 7.0847 116.832 7.34402C117.432 7.60334 117.944 7.9775 118.37 8.46651C118.796 8.95552 119.128 9.55937 119.367 10.2781C119.605 10.9968 119.724 11.8229 119.724 12.7564V12.786C119.724 13.1748 119.418 13.4899 119.039 13.4899H112.758C112.38 13.49 112.074 13.8051 112.074 14.1939C112.074 14.2919 112.094 14.3889 112.132 14.4786ZM117.125 11.4895C117.11 10.7041 116.872 10.0854 116.41 9.63346C115.948 9.1815 115.305 8.95552 114.482 8.95552C113.703 8.95552 113.085 9.1852 112.63 9.64458C112.175 10.1039 111.897 10.7189 111.796 11.4895H117.125Z" fill="#2C3447"/>
</svg>
