<?xml version="1.0" encoding="UTF-8"?>
<svg width="121px" height="31px" viewBox="0 0 121 31" version="1.1" xmlns="http://www.w3.org/2000/svg" xmlns:xlink="http://www.w3.org/1999/xlink">
    <!-- Generator: Sketch 46.2 (44496) - http://www.bohemiancoding.com/sketch -->
    <title>Group</title>
    <desc>Created with Sketch.</desc>
    <defs></defs>
    <g id="Page-1" stroke="none" stroke-width="1" fill="none" fill-rule="evenodd">
        <g id="Group" fill-rule="nonzero">
            <path d="M23.507593,16.3846421 L23.507593,13.3528421 L23.507593,13.3528421 L23.507593,10.8434737 C23.5072668,9.86452632 22.8142075,8.66303158 21.9668814,8.17355789 L15.490283,4.43234737 C14.6429569,3.94287368 13.2565121,3.94287368 12.409186,4.43234737 L5.93323989,8.17355789 C5.0855876,8.66303158 4.3925283,9.86452632 4.3925283,10.8434737 L4.3925283,13.3528421 L4.3925283,16.3846421 L23.507593,16.3846421 Z" id="Shape" fill="#B6BAC0"></path>
            <path d="M27.1705337,0.543642105 C26.4190943,-0.0685263158 25.3137871,0.0450315789 24.7022642,0.796536842 L13.9603342,13.9242211 L3.197531,0.796536842 C2.58600809,0.0447052632 1.48070081,-0.0685263158 0.729261456,0.543642105 C0.337234501,0.862452632 0.123609164,1.31603158 0.0909946092,1.78331579 C0.0894725966,1.79810877 0.0865372866,7.01665965 0.0821886792,17.4389684 L0.0821886792,21.08 C0.0821886792,22.5004526 1.08802156,24.2433053 2.3175903,24.9536947 L11.7141698,30.3819579 C12.3260189,30.7356842 13.1322507,30.9115684 13.9391348,30.9128737 C14.7672183,30.9115684 15.5734501,30.7356842 16.1856253,30.3819579 L25.5822049,24.9536947 C26.8120997,24.2433053 27.8176065,22.5001263 27.8176065,21.08 L27.8176065,17.4392947 L27.8176065,1.84955789 C27.776186,1.31603158 27.5625606,0.862452632 27.1705337,0.543642105 Z" id="Shape" fill="#C4C7CC"></path>
            <path d="M0.0828409704,21.08 C0.0831671159,22.5004526 1.089,24.2433053 2.31824259,24.9536947 L4.1175876,25.9930105 L13.9606604,13.9245474 L13.9502237,13.9372737 L13.7900863,13.7411579 L3.19818329,0.796863158 C2.58666038,0.0450315789 1.4813531,-0.0682 0.729913747,0.543968421 C0.337886792,0.862778947 0.124261456,1.31635789 0.0916469003,1.78364211 C0.0893638814,1.80583158 0.0828409704,1.82802105 0.0828409704,1.84955789 L0.0828409704,11.9451158 L0.0828409704,17.4392947 L0.0831671159,17.4392947 L0.0831671159,21.08 L0.0828409704,21.08 Z" id="Shape" fill="#D0D1D6"></path>
            <path d="M27.8088005,1.78331579 C27.776186,1.31603158 27.5625606,0.862452632 27.1705337,0.543642105 C26.4190943,-0.0685263158 25.3137871,0.0450315789 24.7022642,0.796536842 L13.9603342,13.9242211 L13.9603342,13.9235684 L13.9498976,13.9362947 L23.7822075,25.9923579 L25.5818787,24.9530421 C26.8111213,24.2426526 27.8169542,22.4994737 27.8172803,21.0793474 L27.8176065,17.4386421 L27.8176065,1.84792632 C27.8172803,1.82671579 27.8110836,1.80485263 27.8088005,1.78331579 Z" id="Shape" fill="#BDC0C5"></path>
            <path d="M105.970561,22.2061158 L105.970561,5.34603158 L108.158671,5.34603158 L108.158671,22.2061158 L105.970561,22.2061158 Z M120.648741,19.0157263 C120.020259,20.9951579 118.228089,22.5552737 115.621208,22.5552737 C112.618712,22.5552737 109.988348,20.3663474 109.988348,16.5703158 C109.988348,13.0539368 112.525434,10.6551895 115.341701,10.6551895 C118.786776,10.6551895 120.71821,13.0304421 120.71821,16.5236526 C120.71821,16.8029789 120.695054,17.0826316 120.671571,17.2222947 L112.246253,17.2222947 C112.292892,19.2248947 113.73576,20.6221789 115.621208,20.6221789 C117.436534,20.6221789 118.344523,19.6210421 118.76362,18.3634211 L120.648741,19.0157263 Z M118.437801,15.4526842 C118.390836,13.8459053 117.343908,12.5882842 115.365183,12.5882842 C113.526375,12.5882842 112.409326,14.0090632 112.316049,15.4526842 L118.437801,15.4526842 Z M101.404523,22.2061158 L101.404523,5.34603158 L103.592633,5.34603158 L103.592633,22.2061158 L101.404523,22.2061158 Z M38.9848302,16.5938105 C38.9848302,19.1557158 40.5907709,20.5295053 42.4064232,20.5295053 C44.2586038,20.5295053 45.0736415,19.4190526 45.4144636,18.5500737 C45.4591456,18.4361895 45.5866685,18.2508421 45.8573693,18.3683158 C46.0295741,18.4430421 46.7510081,18.7520632 47.1652129,18.9315368 C47.4026469,19.0343263 47.3736199,19.2976632 47.3230674,19.4164421 C46.6812129,20.9334842 45.103973,22.5552737 42.4064232,22.5552737 C39.147903,22.5552737 36.750407,19.9936947 36.750407,16.5934842 C36.750407,13.1002737 39.1945418,10.6551895 42.3832668,10.6551895 C45.1473504,10.6551895 46.6691456,12.2587053 47.2464232,13.8478632 C47.2914313,13.9715368 47.3589434,14.2214947 47.109442,14.3265684 C46.6854528,14.5050632 45.8655229,14.8552 45.6753801,14.9338421 C45.4164205,15.0412 45.3224906,14.8281158 45.2813962,14.7122737 C44.9262237,13.7104842 44.0942264,12.6809579 42.3832668,12.6809579 C40.6142534,12.6812842 38.9848302,13.9855684 38.9848302,16.5938105 Z M59.9556631,16.5938105 C59.9556631,20.0171895 57.5816496,22.5556 54.2298518,22.5556 C50.8780539,22.5556 48.5040404,20.0171895 48.5040404,16.5938105 C48.5040404,13.1939263 50.8780539,10.6555158 54.2298518,10.6555158 C57.5813235,10.6551895 59.9556631,13.1939263 59.9556631,16.5938105 Z M57.7209137,16.5938105 C57.7209137,14.0090632 56.0914906,12.6117789 54.2295256,12.6117789 C52.3675606,12.6117789 50.7381375,14.0090632 50.7381375,16.5938105 C50.7381375,19.2020526 52.3675606,20.5993368 54.2295256,20.5993368 C56.0918167,20.5990105 57.7209137,19.2020526 57.7209137,16.5938105 Z M63.4656415,22.2061158 C63.0064286,22.2061158 62.4242588,22.2061158 62.2328113,22.2061158 C61.9347143,22.2061158 61.8166496,22.0292526 61.8166496,21.7208842 C61.8166496,19.6621579 61.8166496,11.7437789 61.8166496,11.4314947 C61.8166496,11.0725474 61.8936199,11.0046737 62.2324852,11.0046737 C62.4633962,11.0046737 63.1812426,11.0046737 63.61469,11.0046737 C63.8172264,11.0046737 63.9577951,11.0591684 63.9577951,11.4859895 C63.9577951,11.9128105 63.9577951,12.6114526 63.9577951,12.6114526 C64.7725067,11.2141684 66.0989407,10.6786842 67.4025445,10.6786842 C70.079221,10.6786842 71.4059811,12.6114526 71.4059811,15.1032 C71.4059811,15.1032 71.4059811,21.2908 71.4059811,21.7385053 C71.4059811,22.1862105 71.2093154,22.2061158 70.9451375,22.2061158 C70.5084286,22.2061158 69.8867951,22.2061158 69.6607763,22.2061158 C69.2987547,22.2061158 69.2181968,22.1065895 69.2181968,21.7385053 C69.2181968,21.3704211 69.2181968,15.4758526 69.2181968,15.4758526 C69.2181968,13.9154105 68.5662318,12.6581158 66.6113154,12.6581158 C64.8889407,12.6581158 64.004434,14.0319053 64.004434,15.7320105 C64.004434,15.7320105 64.004434,21.2196632 64.004434,21.5988421 C64.004434,21.9780211 63.885717,22.2061158 63.4656415,22.2061158 Z M76.8979461,11.0046737 C76.8979461,11.0046737 78.8215526,11.0046737 79.0253935,11.0046737 C79.275221,11.0046737 79.3182722,11.1616316 79.3182722,11.3140211 C79.3182722,11.7088632 79.3182722,12.3977158 79.3182722,12.6551789 C79.3182722,12.9508211 79.1731375,12.9841053 78.9895175,12.9841053 C78.8058976,12.9841053 76.8976199,12.9841053 76.8976199,12.9841053 L76.8976199,18.8059053 C76.8976199,19.8305368 77.316717,20.3428526 78.4569218,20.3428526 C78.6134717,20.3428526 78.806876,20.3281684 78.979407,20.3072842 C79.1144313,20.2906421 79.3182722,20.2772632 79.3182722,20.5934632 C79.3182722,20.8176421 79.3182722,21.4869158 79.3182722,21.8579368 C79.3182722,22.0821158 79.1825957,22.1578211 79.0736631,22.1842526 C78.7997008,22.2504947 78.3616873,22.3222842 77.8287655,22.3219579 C75.9201617,22.3219579 74.7098356,21.1576632 74.7098356,19.1315684 L74.7098356,12.9837789 C74.7098356,12.9837789 73.2705553,12.9837789 72.9029892,12.9837789 C72.5990216,12.9837789 72.56869,12.7971263 72.56869,12.5935053 C72.56869,12.2250947 72.56869,11.7056 72.56869,11.4608632 C72.56869,11.0810316 72.7037143,11.0043474 72.9388652,11.0043474 C73.1740162,11.0043474 73.1740162,11.0043474 73.1740162,11.0043474 C74.3843423,11.0043474 74.8960647,10.2590421 74.8960647,9.28107368 C74.8960647,9.28107368 74.8960647,8.42318947 74.8960647,7.97254737 C74.8960647,7.52190526 75.0261968,7.4648 75.3347305,7.4648 C75.6432642,7.4648 76.2365229,7.4648 76.5209218,7.4648 C76.8053208,7.4648 76.8979461,7.50983158 76.8979461,7.93697895 C76.8979461,8.36412632 76.8979461,11.0046737 76.8979461,11.0046737 Z M86.8144016,13.1665158 C86.6467628,13.1534632 86.4820593,13.1472632 86.3242049,13.1472632 C84.4853962,13.1472632 83.2519137,14.1255579 83.2519137,16.5938105 C83.2519137,16.5938105 83.2519137,21.3603053 83.2519137,21.7277368 C83.2519137,22.0246842 83.0555741,22.2061158 82.8129218,22.2061158 C82.4049137,22.2061158 81.4483288,22.2061158 81.4483288,22.2061158 C81.4483288,22.2061158 81.0634771,22.2681158 81.0634771,21.7659158 C81.0634771,21.3247368 81.0634771,13.3583895 81.0634771,11.4249684 C81.0634771,11.1567368 81.1890431,11.0046737 81.4832264,11.0046737 C81.6756523,11.0046737 82.3510997,11.0046737 82.7966146,11.0046737 C83.0330701,11.0046737 83.2046226,11.0565579 83.2046226,11.4641263 C83.2046226,11.8716947 83.2046226,12.9606105 83.2046226,12.9606105 C84.0193342,11.2373368 85.4158895,10.8183474 86.5564205,10.8183474 C86.6317601,10.8183474 86.7146011,10.8124737 86.7961375,10.8147579 C87.0417251,10.8216105 87.2778544,10.8522842 87.2778544,11.2409263 C87.2778544,11.6638316 87.2778544,12.4156632 87.2778544,12.7977789 C87.2781806,13.1273579 86.9670377,13.1779368 86.8144016,13.1665158 Z M99.5438625,16.5938105 C99.5438625,20.0171895 97.1698491,22.5556 93.8177251,22.5556 C90.4662534,22.5556 88.0919137,20.0171895 88.0919137,16.5938105 C88.0919137,13.1939263 90.4659272,10.6555158 93.8177251,10.6555158 C97.1698491,10.6551895 99.5438625,13.1939263 99.5438625,16.5938105 Z M97.3091132,16.5938105 C97.3091132,14.0090632 95.6800162,12.6117789 93.8177251,12.6117789 C91.9557601,12.6117789 90.3266631,14.0090632 90.3266631,16.5938105 C90.3266631,19.2020526 91.9557601,20.5993368 93.8177251,20.5993368 C95.6800162,20.5990105 97.3091132,19.2020526 97.3091132,16.5938105 Z" id="Shape" fill="#C4C7CC"></path>
        </g>
    </g>
</svg>